<svg width="37" height="36" viewBox="0 0 37 36" fill="none" xmlns="http://www.w3.org/2000/svg">
<path fill-rule="evenodd" clip-rule="evenodd" d="M36.9977 18C36.9977 27.9411 28.9388 36 18.9977 36C9.05656 36 0.997681 27.9411 0.997681 18C0.997681 8.05888 9.05656 0 18.9977 0C28.9388 0 36.9977 8.05888 36.9977 18Z" fill="black"/>
<path d="M22.6436 12.937C23.7524 13.5512 24.6731 14.435 25.3131 15.4993C25.9531 16.5637 26.2899 17.7711 26.2894 19V27H21.9456C21.7304 27.5856 21.3313 28.0926 20.8033 28.4512C20.2754 28.8099 19.6445 29.0025 18.9977 29.0025C18.3509 29.0025 17.7201 28.8099 17.1921 28.4512C16.6641 28.0926 16.265 27.5856 16.0498 27H11.7061V19C11.7056 17.7711 12.0423 16.5637 12.6823 15.4993C13.3223 14.435 14.2431 13.5512 15.3519 12.937C15.1807 12.6419 15.0495 12.327 14.9613 12H11.7061V10H14.9623C15.194 9.14178 15.716 8.3817 16.4464 7.83909C17.1768 7.29649 18.0742 7.00208 18.9977 7.00208C19.9213 7.00208 20.8187 7.29649 21.549 7.83909C22.2794 8.3817 22.8014 9.14178 23.0331 10H26.2894V12H23.0331C22.9451 12.3268 22.8146 12.6416 22.6446 12.937H22.6436ZM18.9977 20C18.7215 20 18.4565 20.1054 18.2612 20.2929C18.0658 20.4804 17.9561 20.7348 17.9561 21V26C17.9561 26.2652 18.0658 26.5196 18.2612 26.7071C18.4565 26.8947 18.7215 27 18.9977 27C19.274 27 19.5389 26.8947 19.7343 26.7071C19.9296 26.5196 20.0394 26.2652 20.0394 26V21C20.0394 20.7348 19.9296 20.4804 19.7343 20.2929C19.5389 20.1054 19.274 20 18.9977 20ZM18.9977 13C19.5503 13 20.0802 12.7893 20.4709 12.4142C20.8616 12.0392 21.0811 11.5305 21.0811 11C21.0811 10.4696 20.8616 9.96088 20.4709 9.58581C20.0802 9.21073 19.5503 9.00002 18.9977 9.00002C18.4452 9.00002 17.9153 9.21073 17.5246 9.58581C17.1339 9.96088 16.9144 10.4696 16.9144 11C16.9144 11.5305 17.1339 12.0392 17.5246 12.4142C17.9153 12.7893 18.4452 13 18.9977 13Z" fill="white"/>
</svg>
