<svg width="249" height="72" viewBox="0 0 249 72" fill="none" xmlns="http://www.w3.org/2000/svg">
<g clip-path="url(#clip0)">
<path fill-rule="evenodd" clip-rule="evenodd" d="M36.4783 71.4429C56.0844 71.4429 71.9783 55.549 71.9783 35.9429C71.9783 16.3368 56.0844 0.442871 36.4783 0.442871C16.8722 0.442871 0.978271 16.3368 0.978271 35.9429C0.978271 55.549 16.8722 71.4429 36.4783 71.4429Z" fill="#DAD7FE"/>
<path d="M25.8817 41.6349C25.1457 41.6349 24.4844 41.5015 23.8977 41.2349C23.311 40.9575 22.847 40.5789 22.5057 40.0989C22.175 39.6082 22.0097 39.0429 22.0097 38.4029C22.0097 37.7202 22.207 37.1069 22.6017 36.5629C23.007 36.0189 23.5404 35.6562 24.2017 35.4749C23.5937 35.2722 23.1244 34.9469 22.7937 34.4989C22.463 34.0509 22.2977 33.5602 22.2977 33.0269C22.2977 32.4829 22.4417 31.9869 22.7297 31.5389C23.0177 31.0802 23.4284 30.7175 23.9617 30.4509C24.495 30.1842 25.135 30.0509 25.8817 30.0509C26.6284 30.0509 27.2684 30.1842 27.8017 30.4509C28.335 30.7175 28.7457 31.0802 29.0337 31.5389C29.3217 31.9869 29.4657 32.4829 29.4657 33.0269C29.4657 33.5495 29.3004 34.0402 28.9697 34.4989C28.639 34.9469 28.1697 35.2722 27.5617 35.4749C28.223 35.6562 28.751 36.0189 29.1457 36.5629C29.551 37.1069 29.7537 37.7202 29.7537 38.4029C29.7537 39.0429 29.583 39.6082 29.2417 40.0989C28.911 40.5789 28.4524 40.9575 27.8657 41.2349C27.279 41.5015 26.6177 41.6349 25.8817 41.6349ZM25.8817 34.9949C26.5644 34.9949 27.103 34.8242 27.4977 34.4829C27.903 34.1309 28.1057 33.6722 28.1057 33.1069C28.1057 32.4775 27.9084 32.0029 27.5137 31.6829C27.119 31.3629 26.575 31.2029 25.8817 31.2029C25.1884 31.2029 24.6444 31.3629 24.2497 31.6829C23.8657 32.0029 23.6737 32.4775 23.6737 33.1069C23.6737 33.6722 23.871 34.1309 24.2657 34.4829C24.6604 34.8242 25.199 34.9949 25.8817 34.9949ZM25.8817 40.4509C26.7244 40.4509 27.3537 40.2589 27.7697 39.8749C28.1964 39.4802 28.4097 38.9629 28.4097 38.3229C28.4097 37.5975 28.1804 37.0482 27.7217 36.6749C27.263 36.3015 26.6497 36.1149 25.8817 36.1149C25.1137 36.1149 24.5004 36.3015 24.0417 36.6749C23.583 37.0482 23.3537 37.5975 23.3537 38.3229C23.3537 38.9629 23.5617 39.4802 23.9777 39.8749C24.4044 40.2589 25.039 40.4509 25.8817 40.4509ZM35.9833 41.6349C35.1727 41.6349 34.49 41.4855 33.9353 41.1869C33.3807 40.8775 32.9327 40.4669 32.5913 39.9549C32.2607 39.4429 32.0153 38.8722 31.8553 38.2429C31.706 37.6029 31.6313 36.9522 31.6313 36.2909C31.6313 35.0535 31.802 33.9709 32.1433 33.0429C32.4847 32.1042 32.9753 31.3735 33.6153 30.8509C34.266 30.3175 35.05 30.0509 35.9673 30.0509C36.6713 30.0509 37.274 30.1895 37.7753 30.4669C38.2767 30.7442 38.6713 31.1175 38.9593 31.5869C39.258 32.0455 39.4447 32.5575 39.5193 33.1229H38.2713C38.154 32.5149 37.8927 32.0455 37.4873 31.7149C37.082 31.3842 36.57 31.2189 35.9513 31.2189C35.1087 31.2189 34.3993 31.6189 33.8233 32.4189C33.258 33.2082 32.954 34.4455 32.9113 36.1309C33.1673 35.6295 33.5727 35.1975 34.1273 34.8349C34.6927 34.4615 35.37 34.2749 36.1593 34.2749C36.7993 34.2749 37.3967 34.4242 37.9513 34.7229C38.5167 35.0215 38.9753 35.4429 39.3273 35.9869C39.6793 36.5202 39.8553 37.1495 39.8553 37.8749C39.8553 38.5042 39.7007 39.1069 39.3913 39.6829C39.082 40.2589 38.634 40.7282 38.0473 41.0909C37.4713 41.4535 36.7833 41.6349 35.9833 41.6349ZM35.8873 40.4509C36.3887 40.4509 36.8367 40.3442 37.2313 40.1309C37.626 39.9175 37.9353 39.6242 38.1593 39.2509C38.3833 38.8669 38.4953 38.4295 38.4953 37.9389C38.4953 37.1815 38.2447 36.5789 37.7433 36.1309C37.2527 35.6722 36.634 35.4429 35.8873 35.4429C35.386 35.4429 34.938 35.5602 34.5433 35.7949C34.1487 36.0189 33.834 36.3229 33.5993 36.7069C33.3753 37.0909 33.2633 37.5069 33.2633 37.9549C33.2633 38.4349 33.3753 38.8669 33.5993 39.2509C33.834 39.6242 34.1487 39.9175 34.5433 40.1309C34.938 40.3442 35.386 40.4509 35.8873 40.4509ZM43.7798 35.4429C43.2998 35.4429 42.8625 35.3362 42.4678 35.1229C42.0838 34.8989 41.7798 34.5895 41.5558 34.1949C41.3318 33.7895 41.2198 33.3095 41.2198 32.7549C41.2198 32.2002 41.3318 31.7255 41.5558 31.3309C41.7905 30.9255 42.0998 30.6162 42.4838 30.4029C42.8785 30.1789 43.3158 30.0669 43.7958 30.0669C44.2758 30.0669 44.7078 30.1789 45.0918 30.4029C45.4758 30.6162 45.7798 30.9255 46.0038 31.3309C46.2278 31.7255 46.3398 32.2002 46.3398 32.7549C46.3398 33.3095 46.2225 33.7895 45.9878 34.1949C45.7638 34.5895 45.4598 34.8989 45.0758 35.1229C44.6918 35.3362 44.2598 35.4429 43.7798 35.4429ZM42.7878 41.4429L49.2998 30.2429H50.6438L44.1318 41.4429H42.7878ZM43.7798 34.4029C44.1532 34.4029 44.4785 34.2642 44.7558 33.9869C45.0438 33.7095 45.1878 33.2989 45.1878 32.7549C45.1878 32.2002 45.0492 31.7842 44.7718 31.5069C44.4945 31.2189 44.1692 31.0749 43.7958 31.0749C43.4225 31.0749 43.0865 31.2189 42.7878 31.5069C42.4998 31.7842 42.3558 32.2002 42.3558 32.7549C42.3558 33.2989 42.4998 33.7095 42.7878 33.9869C43.0758 34.2642 43.4065 34.4029 43.7798 34.4029ZM49.7638 41.6349C49.2838 41.6349 48.8465 41.5282 48.4518 41.3149C48.0678 41.0909 47.7638 40.7815 47.5398 40.3869C47.3158 39.9815 47.2038 39.5015 47.2038 38.9469C47.2038 38.3922 47.3158 37.9175 47.5398 37.5229C47.7745 37.1175 48.0838 36.8082 48.4678 36.5949C48.8518 36.3709 49.2838 36.2589 49.7638 36.2589C50.2438 36.2589 50.6758 36.3709 51.0598 36.5949C51.4438 36.8082 51.7478 37.1175 51.9718 37.5229C52.1958 37.9175 52.3078 38.3922 52.3078 38.9469C52.3078 39.5015 52.1958 39.9815 51.9718 40.3869C51.7478 40.7815 51.4438 41.0909 51.0598 41.3149C50.6758 41.5282 50.2438 41.6349 49.7638 41.6349ZM49.7478 40.5949C50.1318 40.5949 50.4625 40.4562 50.7398 40.1789C51.0278 39.9015 51.1718 39.4909 51.1718 38.9469C51.1718 38.3922 51.0332 37.9762 50.7558 37.6989C50.4785 37.4215 50.1478 37.2829 49.7638 37.2829C49.3905 37.2829 49.0598 37.4215 48.7718 37.6989C48.4838 37.9762 48.3398 38.3922 48.3398 38.9469C48.3398 39.4909 48.4785 39.9015 48.7558 40.1789C49.0438 40.4562 49.3745 40.5949 49.7478 40.5949Z" fill="black"/>
<path fill-rule="evenodd" clip-rule="evenodd" d="M36.4711 0.442871C35.0521 0.442871 33.9017 1.5946 33.9017 3.01534C33.9017 4.43607 35.0521 5.5878 36.4711 5.5878C53.2152 5.5878 66.789 19.1782 66.789 35.9429C66.789 49.0658 58.3953 60.5799 46.1747 64.7106C44.8303 65.165 44.1083 66.6246 44.5622 67.9707C45.0161 69.3168 46.4739 70.0397 47.8184 69.5852C62.1125 64.7537 71.9276 51.2896 71.9276 35.9429C71.9276 16.3368 56.0532 0.442871 36.4711 0.442871Z" fill="#4339F2"/>
</g>
<g clip-path="url(#clip1)">
<path fill-rule="evenodd" clip-rule="evenodd" d="M124.478 71.4429C144.084 71.4429 159.978 55.549 159.978 35.9429C159.978 16.3368 144.084 0.442871 124.478 0.442871C104.872 0.442871 88.9783 16.3368 88.9783 35.9429C88.9783 55.549 104.872 71.4429 124.478 71.4429Z" fill="#34B53A" fill-opacity="0.16"/>
<path fill-rule="evenodd" clip-rule="evenodd" d="M124.471 0.442871C123.052 0.442871 121.902 1.5946 121.902 3.01534C121.902 4.43607 123.052 5.5878 124.471 5.5878C141.215 5.5878 154.789 19.1782 154.789 35.9429C154.789 52.7075 141.215 66.2979 124.471 66.2979C116.478 66.2979 108.98 63.1906 103.358 57.7278C102.34 56.7383 100.713 56.7626 99.7249 57.7821C98.7366 58.8017 98.7609 60.4303 99.7792 61.4198C106.35 67.8052 115.128 71.4429 124.471 71.4429C144.053 71.4429 159.928 55.549 159.928 35.9429C159.928 16.3368 144.053 0.442871 124.471 0.442871Z" fill="#34B53A"/>
<path d="M114.413 41.6349C113.602 41.6349 112.92 41.4855 112.365 41.1869C111.81 40.8775 111.362 40.4669 111.021 39.9549C110.69 39.4429 110.445 38.8722 110.285 38.2429C110.136 37.6029 110.061 36.9522 110.061 36.2909C110.061 35.0535 110.232 33.9709 110.573 33.0429C110.914 32.1042 111.405 31.3735 112.045 30.8509C112.696 30.3175 113.48 30.0509 114.397 30.0509C115.101 30.0509 115.704 30.1895 116.205 30.4669C116.706 30.7442 117.101 31.1175 117.389 31.5869C117.688 32.0455 117.874 32.5575 117.949 33.1229H116.701C116.584 32.5149 116.322 32.0455 115.917 31.7149C115.512 31.3842 115 31.2189 114.381 31.2189C113.538 31.2189 112.829 31.6189 112.253 32.4189C111.688 33.2082 111.384 34.4455 111.341 36.1309C111.597 35.6295 112.002 35.1975 112.557 34.8349C113.122 34.4615 113.8 34.2749 114.589 34.2749C115.229 34.2749 115.826 34.4242 116.381 34.7229C116.946 35.0215 117.405 35.4429 117.757 35.9869C118.109 36.5202 118.285 37.1495 118.285 37.8749C118.285 38.5042 118.13 39.1069 117.821 39.6829C117.512 40.2589 117.064 40.7282 116.477 41.0909C115.901 41.4535 115.213 41.6349 114.413 41.6349ZM114.317 40.4509C114.818 40.4509 115.266 40.3442 115.661 40.1309C116.056 39.9175 116.365 39.6242 116.589 39.2509C116.813 38.8669 116.925 38.4295 116.925 37.9389C116.925 37.1815 116.674 36.5789 116.173 36.1309C115.682 35.6722 115.064 35.4429 114.317 35.4429C113.816 35.4429 113.368 35.5602 112.973 35.7949C112.578 36.0189 112.264 36.3229 112.029 36.7069C111.805 37.0909 111.693 37.5069 111.693 37.9549C111.693 38.4349 111.805 38.8669 112.029 39.2509C112.264 39.6242 112.578 39.9175 112.973 40.1309C113.368 40.3442 113.816 40.4509 114.317 40.4509ZM120.965 41.4429L125.413 31.3949H119.269V30.2429H126.789V31.2509L122.389 41.4429H120.965ZM130.585 35.4429C130.105 35.4429 129.667 35.3362 129.273 35.1229C128.889 34.8989 128.585 34.5895 128.361 34.1949C128.137 33.7895 128.025 33.3095 128.025 32.7549C128.025 32.2002 128.137 31.7255 128.361 31.3309C128.595 30.9255 128.905 30.6162 129.289 30.4029C129.683 30.1789 130.121 30.0669 130.601 30.0669C131.081 30.0669 131.513 30.1789 131.897 30.4029C132.281 30.6162 132.585 30.9255 132.809 31.3309C133.033 31.7255 133.145 32.2002 133.145 32.7549C133.145 33.3095 133.027 33.7895 132.793 34.1949C132.569 34.5895 132.265 34.8989 131.881 35.1229C131.497 35.3362 131.065 35.4429 130.585 35.4429ZM129.593 41.4429L136.105 30.2429H137.449L130.937 41.4429H129.593ZM130.585 34.4029C130.958 34.4029 131.283 34.2642 131.561 33.9869C131.849 33.7095 131.993 33.2989 131.993 32.7549C131.993 32.2002 131.854 31.7842 131.577 31.5069C131.299 31.2189 130.974 31.0749 130.601 31.0749C130.227 31.0749 129.891 31.2189 129.593 31.5069C129.305 31.7842 129.161 32.2002 129.161 32.7549C129.161 33.2989 129.305 33.7095 129.593 33.9869C129.881 34.2642 130.211 34.4029 130.585 34.4029ZM136.569 41.6349C136.089 41.6349 135.651 41.5282 135.257 41.3149C134.873 41.0909 134.569 40.7815 134.345 40.3869C134.121 39.9815 134.009 39.5015 134.009 38.9469C134.009 38.3922 134.121 37.9175 134.345 37.5229C134.579 37.1175 134.889 36.8082 135.273 36.5949C135.657 36.3709 136.089 36.2589 136.569 36.2589C137.049 36.2589 137.481 36.3709 137.865 36.5949C138.249 36.8082 138.553 37.1175 138.777 37.5229C139.001 37.9175 139.113 38.3922 139.113 38.9469C139.113 39.5015 139.001 39.9815 138.777 40.3869C138.553 40.7815 138.249 41.0909 137.865 41.3149C137.481 41.5282 137.049 41.6349 136.569 41.6349ZM136.553 40.5949C136.937 40.5949 137.267 40.4562 137.545 40.1789C137.833 39.9015 137.977 39.4909 137.977 38.9469C137.977 38.3922 137.838 37.9762 137.561 37.6989C137.283 37.4215 136.953 37.2829 136.569 37.2829C136.195 37.2829 135.865 37.4215 135.577 37.6989C135.289 37.9762 135.145 38.3922 135.145 38.9469C135.145 39.4909 135.283 39.9015 135.561 40.1789C135.849 40.4562 136.179 40.5949 136.553 40.5949Z" fill="black"/>
</g>
<g clip-path="url(#clip2)">
<path fill-rule="evenodd" clip-rule="evenodd" d="M212.978 71.4429C232.861 71.4429 248.978 55.549 248.978 35.9429C248.978 16.3368 232.861 0.442871 212.978 0.442871C193.096 0.442871 176.978 16.3368 176.978 35.9429C176.978 55.549 193.096 71.4429 212.978 71.4429Z" fill="#FFE5D3"/>
<path d="M204.852 41.4429V31.7469L203.044 32.1469V31.2189L205.3 30.2429H206.212V41.4429H204.852ZM213.648 41.4429V39.0429H207.968V38.0029L213.408 30.2429H214.976V37.8589H216.64V39.0429H214.976V41.4429H213.648ZM209.456 37.8589H213.712V31.7309L209.456 37.8589ZM220.217 35.4429C219.737 35.4429 219.3 35.3362 218.905 35.1229C218.521 34.8989 218.217 34.5895 217.993 34.1949C217.769 33.7895 217.657 33.3095 217.657 32.7549C217.657 32.2002 217.769 31.7255 217.993 31.3309C218.228 30.9255 218.537 30.6162 218.921 30.4029C219.316 30.1789 219.753 30.0669 220.233 30.0669C220.713 30.0669 221.145 30.1789 221.529 30.4029C221.913 30.6162 222.217 30.9255 222.441 31.3309C222.665 31.7255 222.777 32.2002 222.777 32.7549C222.777 33.3095 222.66 33.7895 222.425 34.1949C222.201 34.5895 221.897 34.8989 221.513 35.1229C221.129 35.3362 220.697 35.4429 220.217 35.4429ZM219.225 41.4429L225.737 30.2429H227.081L220.569 41.4429H219.225ZM220.217 34.4029C220.591 34.4029 220.916 34.2642 221.193 33.9869C221.481 33.7095 221.625 33.2989 221.625 32.7549C221.625 32.2002 221.487 31.7842 221.209 31.5069C220.932 31.2189 220.607 31.0749 220.233 31.0749C219.86 31.0749 219.524 31.2189 219.225 31.5069C218.937 31.7842 218.793 32.2002 218.793 32.7549C218.793 33.2989 218.937 33.7095 219.225 33.9869C219.513 34.2642 219.844 34.4029 220.217 34.4029ZM226.201 41.6349C225.721 41.6349 225.284 41.5282 224.889 41.3149C224.505 41.0909 224.201 40.7815 223.977 40.3869C223.753 39.9815 223.641 39.5015 223.641 38.9469C223.641 38.3922 223.753 37.9175 223.977 37.5229C224.212 37.1175 224.521 36.8082 224.905 36.5949C225.289 36.3709 225.721 36.2589 226.201 36.2589C226.681 36.2589 227.113 36.3709 227.497 36.5949C227.881 36.8082 228.185 37.1175 228.409 37.5229C228.633 37.9175 228.745 38.3922 228.745 38.9469C228.745 39.5015 228.633 39.9815 228.409 40.3869C228.185 40.7815 227.881 41.0909 227.497 41.3149C227.113 41.5282 226.681 41.6349 226.201 41.6349ZM226.185 40.5949C226.569 40.5949 226.9 40.4562 227.177 40.1789C227.465 39.9015 227.609 39.4909 227.609 38.9469C227.609 38.3922 227.471 37.9762 227.193 37.6989C226.916 37.4215 226.585 37.2829 226.201 37.2829C225.828 37.2829 225.497 37.4215 225.209 37.6989C224.921 37.9762 224.777 38.3922 224.777 38.9469C224.777 39.4909 224.916 39.9015 225.193 40.1789C225.481 40.4562 225.812 40.5949 226.185 40.5949Z" fill="black"/>
<path fill-rule="evenodd" clip-rule="evenodd" d="M212.971 0.442844C211.532 0.442844 210.365 1.59458 210.365 3.01531C210.365 4.43604 211.532 5.58777 212.971 5.58777C229.882 5.58777 243.616 19.0726 243.715 35.76C243.724 37.1807 244.897 38.3256 246.336 38.3173C247.775 38.3089 248.935 37.1504 248.926 35.7297C248.81 16.2131 232.748 0.442844 212.971 0.442844Z" fill="#FF3A29"/>
</g>
<defs>
<clipPath id="clip0">
<rect width="71" height="71" fill="white" transform="translate(0.978271 0.442871)"/>
</clipPath>
<clipPath id="clip1">
<rect width="71" height="71" fill="white" transform="translate(88.9783 0.442871)"/>
</clipPath>
<clipPath id="clip2">
<rect width="72" height="71" fill="white" transform="translate(176.978 0.442871)"/>
</clipPath>
</defs>
</svg>
