<svg width="694" height="205" viewBox="0 0 694 205" fill="none" xmlns="http://www.w3.org/2000/svg">
<path fill-rule="evenodd" clip-rule="evenodd" d="M692.975 204.391C692.975 204.391 660.908 171.235 644.73 162.161C635.08 156.748 625.395 153.115 615.677 151.262C607.399 149.684 600.679 148.54 594.883 147.339C573.36 142.878 573.424 139.119 545.004 107.861C528.671 89.8974 515.545 75.1667 496.416 68.6301C482.961 64.0321 250.048 0.982135 199.013 0.879246C147.978 0.776357 71.7162 37.1434 50.6787 46.4939C36.5414 52.7775 0.978271 68.9641 0.978271 68.9641V204.443L692.975 204.391Z" fill="#4339F2"/>
<path fill-rule="evenodd" clip-rule="evenodd" d="M0.978271 204.405C0.978271 204.405 33.0458 179.806 49.224 173.073C58.874 169.058 68.5583 166.362 78.2769 164.988C86.5544 163.817 93.2746 162.968 99.0702 162.077C120.593 158.767 120.53 155.978 148.95 132.788C165.283 119.461 178.409 108.532 197.538 103.682C210.993 100.271 227.318 99.8853 249.019 103.93C264.604 106.835 274.108 109.822 296.166 117.817C313.555 124.119 334.206 126.448 349.495 125.151C367.21 123.648 382.202 117.997 397.811 110.412C414.881 102.117 429.368 90.0442 444.877 80.0118C457.408 71.9059 479.849 55.3604 494.941 53.4173C510.032 51.4743 534.395 57.2618 543.984 58.9834C555.783 61.1019 572.237 65.7512 593.344 71.8567C603.622 74.8296 622.237 80.322 643.275 87.2592C657.412 91.9211 692.975 103.93 692.975 103.93V204.443L0.978271 204.405Z" fill="#34B53A"/>
<path fill-rule="evenodd" clip-rule="evenodd" d="M0.978271 205.446C0.978271 205.446 11.3059 179.118 50.4034 176.79C73.3495 175.423 86.926 181.622 99.8285 183.992C108.91 185.66 120.305 185.503 135.238 180.373C139.818 178.799 144.268 177.281 148.668 175.855C164.631 170.682 179.94 166.722 198.48 165.723C214.853 164.841 249.87 169.873 250.317 169.967C263.151 172.646 268.662 144.846 301.217 145.619C324.411 146.17 331.165 152.467 350.643 155.854C366.628 158.633 381.427 161 400.068 162.677C420.999 164.56 423.719 164.58 449.493 164.193C466.396 163.94 483.136 162.062 498.628 159.089C517.802 155.409 535.064 185.391 548.352 179.354C556.275 175.755 562.785 171.915 567.447 168.047C578.128 159.184 586.965 150.537 597.639 145.072C604.655 141.48 612.464 139.262 622.112 139.262C632.593 139.262 638.1 140.354 646.456 143.432C664.759 150.175 687.456 176.816 689.979 186.266C692.502 195.717 693.978 205.446 693.978 205.446H0.978271Z" fill="#FF3A29"/>
</svg>
