<svg width="52" height="50" viewBox="0 0 52 50" fill="none" xmlns="http://www.w3.org/2000/svg">
<path d="M42.1832 26.5894L29.6324 32.8647C28.747 33.3075 27.6956 33.5288 26.4781 33.5288C25.2607 33.5288 24.2093 33.3075 23.3239 32.8647L10.7731 26.5894C9.90979 26.1466 9.47815 25.6209 9.47815 25.0122C9.47815 24.4035 9.90979 23.8778 10.7731 23.4351L14.027 21.8413L16.3512 23.0034L11.6031 25.0288L26.4781 31.4038L41.3531 25.0288L36.6051 23.0034L38.9293 21.8413L42.1832 23.4351C43.0465 23.8778 43.4781 24.4035 43.4781 25.0122C43.4781 25.6209 43.0465 26.1466 42.1832 26.5894ZM42.1832 18.0894L29.6324 24.3647C28.747 24.8075 27.6956 25.0288 26.4781 25.0288C25.2607 25.0288 24.2093 24.8075 23.3239 24.3647L10.7731 18.0894C9.90979 17.6466 9.47815 17.1209 9.47815 16.5122C9.47815 15.9035 9.90979 15.3778 10.7731 14.9351L23.3239 8.65967C24.2093 8.2391 25.2607 8.02881 26.4781 8.02881C27.6956 8.02881 28.747 8.2391 29.6324 8.65967L42.1832 14.9351C43.0465 15.3778 43.4781 15.9035 43.4781 16.5122C43.4781 17.1209 43.0465 17.6466 42.1832 18.0894ZM10.7731 31.9683L14.027 30.3413L16.3512 31.5034L11.6031 33.5288L26.4781 39.9038L41.3531 33.5288L36.6051 31.5034L38.9293 30.3413L42.1832 31.9683C43.0465 32.3888 43.4781 32.909 43.4781 33.5288C43.4781 34.1486 43.0465 34.6688 42.1832 35.0894L29.6324 41.3647C28.747 41.8075 27.6956 42.0288 26.4781 42.0288C25.2607 42.0288 24.2093 41.8075 23.3239 41.3647L10.7731 35.0894C9.90979 34.6688 9.47815 34.1486 9.47815 33.5288C9.47815 32.909 9.90979 32.3888 10.7731 31.9683Z" fill="#9B51E0"/>
<path d="M42.1832 26.4175L29.6324 32.6929C28.747 33.1356 27.6956 33.3569 26.4781 33.3569C25.2607 33.3569 24.2093 33.1356 23.3239 32.6929L10.7731 26.4175C9.90979 25.9748 9.47815 25.4491 9.47815 24.8403C9.47815 24.2316 9.90979 23.717 10.7731 23.2964L14.027 21.6694L23.3239 26.3179C24.2093 26.7606 25.2607 26.9819 26.4781 26.9819C27.6956 26.9819 28.747 26.7606 29.6324 26.3179L38.9293 21.6694L42.1832 23.2964C43.0465 23.717 43.4781 24.2371 43.4781 24.8569C43.4781 25.4767 43.0465 25.9969 42.1832 26.4175ZM42.1832 17.9175L29.6324 24.1929C28.747 24.6356 27.6956 24.8569 26.4781 24.8569C25.2607 24.8569 24.2093 24.6356 23.3239 24.1929L10.7731 17.9175C9.90979 17.4748 9.47815 16.9491 9.47815 16.3403C9.47815 15.7316 9.90979 15.2059 10.7731 14.7632L23.3239 8.48779C24.2093 8.06722 25.2607 7.85693 26.4781 7.85693C27.6956 7.85693 28.747 8.06722 29.6324 8.48779L42.1832 14.7632C43.0465 15.2059 43.4781 15.7316 43.4781 16.3403C43.4781 16.9491 43.0465 17.4748 42.1832 17.9175ZM26.4781 9.98193L11.6031 16.3569L26.4781 22.7319L41.3531 16.3569L26.4781 9.98193ZM10.7731 31.7964L14.027 30.1694L16.3512 31.3315L11.6031 33.3569L26.4781 39.7319L41.3531 33.3569L36.6051 31.3315L38.9293 30.1694L42.1832 31.7964C43.0465 32.217 43.4781 32.7371 43.4781 33.3569C43.4781 33.9767 43.0465 34.4969 42.1832 34.9175L29.6324 41.1929C28.747 41.6356 27.6956 41.8569 26.4781 41.8569C25.2607 41.8569 24.2093 41.6356 23.3239 41.1929L10.7731 34.9175C9.90979 34.4969 9.47815 33.9767 9.47815 33.3569C9.47815 32.7371 9.90979 32.217 10.7731 31.7964Z" fill="#9B51E0"/>
</svg>
