<svg width="52" height="52" viewBox="0 0 52 52" fill="none" xmlns="http://www.w3.org/2000/svg">
<path d="M43.7999 27.7587L29.9572 34.6801C28.9806 35.1684 27.8209 35.4125 26.4781 35.4125C25.1354 35.4125 23.9757 35.1684 22.9991 34.6801L9.15637 27.7587C8.20422 27.2704 7.72815 26.6906 7.72815 26.0192C7.72815 25.3478 8.20422 24.768 9.15637 24.2797L12.7452 22.5219L15.3087 23.8036L10.0719 26.0375L26.4781 33.0688L42.8844 26.0375L37.6476 23.8036L40.2111 22.5219L43.7999 24.2797C44.7521 24.768 45.2281 25.3478 45.2281 26.0192C45.2281 26.6906 44.7521 27.2704 43.7999 27.7587ZM43.7999 18.3837L29.9572 25.3051C28.9806 25.7934 27.8209 26.0375 26.4781 26.0375C25.1354 26.0375 23.9757 25.7934 22.9991 25.3051L9.15637 18.3837C8.20422 17.8954 7.72815 17.3156 7.72815 16.6442C7.72815 15.9728 8.20422 15.393 9.15637 14.9047L22.9991 7.98334C23.9757 7.51947 25.1354 7.28754 26.4781 7.28754C27.8209 7.28754 28.9806 7.51947 29.9572 7.98334L43.7999 14.9047C44.7521 15.393 45.2281 15.9728 45.2281 16.6442C45.2281 17.3156 44.7521 17.8954 43.7999 18.3837ZM9.15637 33.6913L12.7452 31.8969L15.3087 33.1786L10.0719 35.4125L26.4781 42.4438L42.8844 35.4125L37.6476 33.1786L40.2111 31.8969L43.7999 33.6913C44.7521 34.1552 45.2281 34.7289 45.2281 35.4125C45.2281 36.0961 44.7521 36.6699 43.7999 37.1337L29.9572 44.0551C28.9806 44.5434 27.8209 44.7875 26.4781 44.7875C25.1354 44.7875 23.9757 44.5434 22.9991 44.0551L9.15637 37.1337C8.20422 36.6699 7.72815 36.0961 7.72815 35.4125C7.72815 34.7289 8.20422 34.1552 9.15637 33.6913Z" fill="#00CE2D"/>
<path d="M43.7999 27.5693L29.9572 34.4907C28.9806 34.979 27.8209 35.2231 26.4781 35.2231C25.1354 35.2231 23.9757 34.979 22.9991 34.4907L9.15637 27.5693C8.20422 27.0811 7.72815 26.5012 7.72815 25.8298C7.72815 25.1584 8.20422 24.5908 9.15637 24.127L12.7452 22.3325L22.9991 27.4595C23.9757 27.9478 25.1354 28.1919 26.4781 28.1919C27.8209 28.1919 28.9806 27.9478 29.9572 27.4595L40.2111 22.3325L43.7999 24.127C44.7521 24.5908 45.2281 25.1646 45.2281 25.8481C45.2281 26.5317 44.7521 27.1055 43.7999 27.5693ZM43.7999 18.1943L29.9572 25.1157C28.9806 25.604 27.8209 25.8481 26.4781 25.8481C25.1354 25.8481 23.9757 25.604 22.9991 25.1157L9.15637 18.1943C8.20422 17.7061 7.72815 17.1262 7.72815 16.4548C7.72815 15.7834 8.20422 15.2036 9.15637 14.7153L22.9991 7.79395C23.9757 7.33008 25.1354 7.09814 26.4781 7.09814C27.8209 7.09814 28.9806 7.33008 29.9572 7.79395L43.7999 14.7153C44.7521 15.2036 45.2281 15.7834 45.2281 16.4548C45.2281 17.1262 44.7521 17.7061 43.7999 18.1943ZM26.4781 9.44189L10.0719 16.4731L26.4781 23.5044L42.8844 16.4731L26.4781 9.44189ZM9.15637 33.502L12.7452 31.7075L15.3087 32.9893L10.0719 35.2231L26.4781 42.2544L42.8844 35.2231L37.6476 32.9893L40.2111 31.7075L43.7999 33.502C44.7521 33.9658 45.2281 34.5396 45.2281 35.2231C45.2281 35.9067 44.7521 36.4805 43.7999 36.9443L29.9572 43.8657C28.9806 44.354 27.8209 44.5981 26.4781 44.5981C25.1354 44.5981 23.9757 44.354 22.9991 43.8657L9.15637 36.9443C8.20422 36.4805 7.72815 35.9067 7.72815 35.2231C7.72815 34.5396 8.20422 33.9658 9.15637 33.502Z" fill="#00CE2D"/>
</svg>
