<svg width="52" height="50" viewBox="0 0 52 50" fill="none" xmlns="http://www.w3.org/2000/svg">
<path fill-rule="evenodd" clip-rule="evenodd" d="M10.4578 11.6304C10.4578 10.4535 10.9921 9.32478 11.9432 8.49258C12.8943 7.66039 14.1842 7.19287 15.5293 7.19287H35.815C37.16 7.19287 38.4499 7.66039 39.401 8.49258C40.3521 9.32478 40.8864 10.4535 40.8864 11.6304V38.2554C41.5589 38.2554 42.2039 38.4891 42.6794 38.9052C43.155 39.3213 43.4221 39.8857 43.4221 40.4741C43.4221 41.0626 43.155 41.6269 42.6794 42.043C42.2039 42.4591 41.5589 42.6929 40.8864 42.6929H33.2793C32.6068 42.6929 31.9618 42.4591 31.4862 42.043C31.0107 41.6269 30.7435 41.0626 30.7435 40.4741V36.0366C30.7435 35.4482 30.4764 34.8838 30.0009 34.4677C29.5253 34.0516 28.8803 33.8179 28.2078 33.8179H23.1364C22.4639 33.8179 21.8189 34.0516 21.3434 34.4677C20.8678 34.8838 20.6007 35.4482 20.6007 36.0366V40.4741C20.6007 41.0626 20.3335 41.6269 19.858 42.043C19.3825 42.4591 18.7375 42.6929 18.065 42.6929H10.4578C9.78532 42.6929 9.14035 42.4591 8.66481 42.043C8.18927 41.6269 7.92212 41.0626 7.92212 40.4741C7.92212 39.8857 8.18927 39.3213 8.66481 38.9052C9.14035 38.4891 9.78532 38.2554 10.4578 38.2554V11.6304ZM18.065 13.8491H23.1364V18.2866H18.065V13.8491ZM23.1364 22.7241H18.065V27.1616H23.1364V22.7241ZM28.2078 13.8491H33.2793V18.2866H28.2078V13.8491ZM33.2793 22.7241H28.2078V27.1616H33.2793V22.7241Z" fill="#FFB200"/>
</svg>
